<svg width="25" height="25" viewBox="0 0 25 25" fill="none" xmlns="http://www.w3.org/2000/svg">
<path d="M0 6C0 2.68629 2.68629 0 6 0H19C22.3137 0 25 2.68629 25 6V19C25 22.3137 22.3137 25 19 25H6C2.68629 25 0 22.3137 0 19V6Z" fill="#F8F8F8"/>
<path fill-rule="evenodd" clip-rule="evenodd" d="M19 1H6C3.23858 1 1 3.23858 1 6V19C1 21.7614 3.23858 24 6 24H19C21.7614 24 24 21.7614 24 19V6C24 3.23858 21.7614 1 19 1ZM6 0C2.68629 0 0 2.68629 0 6V19C0 22.3137 2.68629 25 6 25H19C22.3137 25 25 22.3137 25 19V6C25 2.68629 22.3137 0 19 0H6Z" fill="#EAEAEA"/>
<path fill-rule="evenodd" clip-rule="evenodd" d="M14.5 7H11.5C10.8469 7 10.2913 7.4174 10.0854 8H15.9146C15.7087 7.4174 15.1531 7 14.5 7ZM6 9V11.4384C6 11.8973 6.3123 12.2973 6.75746 12.4086L13 13.9692L19.2425 12.4086C19.6877 12.2973 20 11.8973 20 11.4384V9H6ZM9.05001 8H5V11.4384C5 12.3562 5.62459 13.1561 6.51493 13.3787L13 15L19.4851 13.3787C20.3754 13.1561 21 12.3562 21 11.4384V8H16.95C16.7184 6.85888 15.7095 6 14.5 6H11.5C10.2905 6 9.28164 6.85888 9.05001 8ZM6 15H5V17.5C5 18.8807 6.11929 20 7.5 20H18.5C19.8807 20 21 18.8807 21 17.5V15H20V17.5C20 18.3284 19.3284 19 18.5 19H7.5C6.67157 19 6 18.3284 6 17.5V15Z" fill="#313E78"/>
</svg>
