<svg width="17" height="17" viewBox="0 0 17 17" fill="none" xmlns="http://www.w3.org/2000/svg">
<path d="M8.34671 4.80569L12.1936 8.65255C12.5919 9.05092 12.5919 9.69683 12.1936 10.0952L7.385 14.9038C5.92433 16.3644 3.55615 16.3644 2.09549 14.9038C0.634836 13.4431 0.634836 11.0749 2.09549 9.61427L6.90414 4.80569C7.30244 4.40732 7.94834 4.40732 8.34671 4.80569Z" stroke="#153F6F"/>
<path d="M9.30908 3.36309L11.473 1.19918C11.7385 0.933606 12.1691 0.933606 12.4347 1.19918L15.8007 4.5652C16.0663 4.83076 16.0663 5.26136 15.8007 5.52692L13.6368 7.69081" stroke="#153F6F"/>
<path d="M12.4337 3.6033L11.9529 3.12244L10.9912 4.08417L11.472 4.56503L12.4337 3.6033Z" fill="#F47843"/>
<path d="M13.8771 5.046L13.3962 4.56513L12.4345 5.52686L12.9154 6.00772L13.8771 5.046Z" fill="#F47843"/>
</svg>
