<?xml version="1.0" encoding="utf-8"?>
<!-- Generator: Adobe Illustrator 23.0.6, SVG Export Plug-In . SVG Version: 6.00 Build 0)  -->
<svg version="1.1" id="Layer_1" xmlns="http://www.w3.org/2000/svg" xmlns:xlink="http://www.w3.org/1999/xlink" x="0px" y="0px"
	 viewBox="0 0 300 300" style="enable-background:new 0 0 300 300;" xml:space="preserve">
<style type="text/css">
	.st0{fill:#B2B7C7;}
</style>
<title>Cool</title>
<path class="st0" d="M113.1,99.3c0.7,1.2,1.2,2.6,1.3,4c0,0.6-0.2,1.5-0.9,1.4s-1.2-1-1.3-1.7c0-0.1,0-0.1,0-0.2c0-0.1,0-0.1,0-0.2
	c0,0,0-0.1,0-0.1c-0.1-0.5-0.3-1-0.5-1.4c-0.7-1.3-2.2-2-3.7-1.6c-1.4,0.2-2.3-2.8-0.9-3.1C109.5,96.1,111.9,97.2,113.1,99.3z
	 M160.5,142.2c-0.1,0-0.2,0.1-0.3,0.1c-0.1,0.5-0.6,0.8-1,0.7c0,0-0.1,0-0.1,0c-1.9,0.8-1-4.5-1-4.5c-2.9,0.8-6,1.2-9,1.3
	c-1.4,0-1.9-3.1-0.3-3.1c14.6,0,27.1-10.1,31.6-23.9c2.6-8.7,4.1-17.6,4.3-26.7c-0.1-1.4-1.5-12.8-2.8-16.8
	c-1.4-4.2-1.8-5.5-16.7-4.3c-14.9,1.2-32.1-7.5-39-4.5s-3.5,21.1-7,25c-2.9,3.2-5.4,4.1-6.2,4.3c0.5,0.1,1,0.2,1.4,0.3
	c1.3,0.3,1.7,3.5,0.3,3.1c-4.9-1.2-12.6-1.1-13,5.5c-0.3,5.8,5,9.2,9.8,10.4c1.6,0.4,1.6,0.3,2.6,1.4c3.1,3.5,5.3,8.1,8.2,11.8
	s6.7,9.4,11.6,11c0.7,0.2,1,1.3,1,2c-0.1,3-0.9,6.6-0.3,9.5c1.7,7.9,16.7,5.8,21.4,2.9c1.4-0.8,2.5,2.1,1.4,2.8
	c-6.5,3.9-19.8,4.8-24-3c-1.8-3.3-1.1-7.9-0.8-11.7c-5.5-2.4-9.8-9-13.1-13.5c-2-2.7-3.9-5.5-5.8-8.3c-0.3-0.4-0.8-1.7-1.3-2
	s-2.9-0.2-3.9-0.6c-6.2-2.5-11.1-10.3-8.3-17c0.7-1.5,1.8-2.8,3.3-3.6c-1.7-4.5-6.1-41.4,2.1-52.3c15.5-20.5,51.1-17.5,51.4-16.2
	s-1.7,2-2.6,3.5s0.2,1.4,0.2,1.4c15.9-1.9,36.6,4.8,39.8,7.8s-11.8,14.9-7.8,23c3.2,6.4,3.9,19.9,3.5,25.1c1.6,0.7,2.7,2.4,2.9,4.9
	c0.6,5.7-2.6,9.9-7.2,12.7c-0.1,0-0.2,0.1-0.3,0.1c-0.8,5.8-2.2,11.5-4.4,17c-3.8,9.5-11.5,16.9-21.1,20.3v1.4h0.2
	c17.1,6.5,34.6,16.2,47.3,29.5c0.9,1,0.5,4-0.8,2.6C194.5,158.1,177.3,148.6,160.5,142.2z M186.2,96.3c2.1-1.3,3.6-3.2,4.5-5.5
	c0.6-1.8,1-5.9-1.9-5.4c-0.7,0.1-1.3,0.4-1.9,0.8c0,0.1,0,0.2,0,0.3C186.8,89.7,186.6,93,186.2,96.3z M126.5,143.7
	c-12.7,5.2-24.5,12.3-35,21.1c-1,0.9,0.2,3.8,1.4,2.8c10.3-8.7,22-15.7,34.5-20.9C128.7,146.2,127.8,143.1,126.5,143.7z
	 M104.3,197.7c0.9,4.9-2,58-4.2,79.3c-0.2,1.5,2,3.1,2.2,1c2.2-21.5,5.1-75.1,4.2-80.1C106.2,196.3,103.9,195.6,104.3,197.7
	L104.3,197.7z M102.4,206.7c-16.2,23-38.7,30.5-50.8,27.3c-8.4-2.3-11.3-8.8-11.1-17c0.3-9.9,1.2-22.3,5.9-31.2
	c1.5-2.8,2.8-3.1,4.6-1.6l5.4-13.6c0.1-3,0.6-5.9,1.7-8.7c0.8-1.8,2.2-3,3.2-4.6c1.4-2.4,1.2-5.7,1-8.4c-0.3-3.2-0.9-6.3-1.2-9.4
	c-0.2-2.2-1.7-8.3,0-10.4c2.2-2.6,7.8,0.5,9.7,1.9c6.8,5.1,5.8,14.8,4.2,22.5c3.6-0.9,7.8-1.4,10.2,0.6c1.8,1.7,2.3,4.4,1,6.6
	c-0.2,0.2-0.4,0.5-0.6,0.7c1.3,0.8,2.2,2.2,2.3,3.8c0.2,1.7-0.4,3.3-1.5,4.6c2,1.8,2.5,4.8,1.2,7.2c-0.2,0.3-0.4,0.7-0.7,0.9
	c3.9,9.6-13.3,12.9-19.9,11.9c-6-0.9-9.1-6.7-10.2-13.1c-1.2,3.2-2.5,6.3-3.7,9.5c4.4,4.5,9.6,8.8,16.4,7.1c1.4-0.4,2.3,2.7,0.9,3.1
	c-8.7,1.9-17.3-6.9-18.8-8.3c-1.2-1.1-1.6-1.8-2.8-0.8c-0.7,0.6-1.1,2.1-1.4,3c-6.9,15.7-4.2,36.1-0.8,38.6c4.4,3.2,11.7,3.7,16.9,3
	c9.5-1.4,18-8.5,24.8-14.8c4.4-3.9,8.5-8.2,12.3-12.7C101.7,203,103.2,205.7,102.4,206.7z M59.5,178.4c1,3.9,2.9,7.5,7.1,8.2
	c3.1,0.5,6.3,0.4,9.4-0.4c3-0.8,9.4-3.2,9-7c-2,1.1-4.2,1.9-6.5,2.2c-1.4,0.3-2.3-2.8-0.9-3.1c2.2-0.4,4.3-1.1,6.2-2.2
	c0.2-0.1,0.3-0.2,0.5-0.4c0.1-0.2,0.3-0.3,0.5-0.4c0.9-0.7,1.7-1.8,1.1-2.9c-0.4-0.6-1.1-1-1.8-1l-0.2-0.1c-2.2,1.2-4.6,2.2-7.1,2.7
	c-1.4,0.4-2.3-2.7-0.9-3.1c2.9-0.8,8.4-2.1,9.6-5.5c0.9-2.6-3-2.5-4.5-2.1l0,0c-1.7,0.6-3.5,1-4.8,1.5s-2.2-2.6-0.9-3.1
	c2.6-0.9,6.3-1.5,8.5-3.3s-0.5-2.7-2.2-2.7c-3.3,0-6.5,0.5-9.6,1.6c-1.4,0.4-2.3-2.7-0.9-3.1l1.2-0.4l0,0c0.9-4,1.4-8.1,1.3-12.2
	c-0.1-4-1.4-7.1-5-9.1c-0.9-0.5-4.9-2.5-5.9-1.4c-0.8,0.8,1.5,16.4,1.7,18.7c0.2,3.9,0.1,7.4-2.3,10.5
	C58.5,165.7,58,172.4,59.5,178.4z M70.7,198.9c-1.8,6.3-3.7,13.6-2.5,20.1c0.3,1.6,2.6,2.4,2.2,0.3c-1.1-6,0.7-12.8,2.3-18.6
	C73.2,199.4,71.3,197.1,70.7,198.9z M194.2,239.9c-0.9-16.4-3-60.5-3-60.5c-0.1-1.7-2.3-2.4-2.2-0.3c1.3,27.1,4.6,91.7,5.2,96.8
	c0.2,1.7,2.4,2.4,2.2,0.3C195,264.3,194.2,239.9,194.2,239.9z M255.9,226.5c-5.8,8.1-16.5,9.7-25.7,7.1c-7.9-2.3-14.8-8.6-21-13.7
	c-4.6-3.9-9.1-7.9-13.4-12c-1-0.9-0.6-3.9,0.8-2.6c5.1,4.9,10.4,9.6,15.9,14.1c8.7,7.1,17.9,14.1,29.8,11.8
	c6.3-1.2,10.6-4.6,13.6-10.2c3.5-6,0.1-22.6-6.8-31.1c-4,6.1-13.5,6.3-19.9,5.4c-1.4-0.2-1.8-3.4-0.3-3.1c4.7,0.7,12.1,0.6,16.3-2.4
	l-3.8-9.8c-0.5,1.8-1.3,3.5-2.4,5.1c-3.3,4.8-9.1,5-14.5,4.2c-5.9-0.9-14.9-5.6-12.4-12.4c-0.1-0.1-0.2-0.2-0.3-0.3
	c-1.6-2.3-1.5-6.1,0.7-7.7c-1-1.1-1.5-2.5-1.6-4c-0.1-1.8,0.8-3.5,2.4-4.3c-0.2-0.2-0.4-0.4-0.6-0.7c-1.3-1.8-1.2-4.9,0.6-6.4
	c2.6-2.2,7.4-1.3,11.1-0.2c-2.4-9.4-3.5-23.4,9.1-25.4c7.9-1.3,4.1,12.4,3.6,16.6c-0.4,3.2-1.1,6.4-0.7,9.7c0.4,2.9,2.1,4,3.4,6.4
	c1,1.8,1.6,3.9,1.9,5.9c0.5,3.2,0.6,6.5,0.2,9.7l4.6,12c0.4-0.5,0.7-1,1-1.6c0.5-1.1,1.4-0.6,1.9,0.2c3.2,5.2,8,11.3,8.7,17.5
	C259.6,212.2,260.7,219.7,255.9,226.5L255.9,226.5z M237,159.8c-2.2-3-2.5-6.2-2.4-9.9c0.2-2.3,2.5-17.5,1.8-18.5s-3.3-0.1-4.8,0.6
	c-3.4,1.4-5.8,4.6-6.1,8.3c-0.5,4.1,0.4,8.7,1.4,12.7c0.1,0.3,0.8,1.2,0.8,1.2c1.3,0.4,1.4,3.5-0.3,3c-3.1-1.1-6.4-1.6-9.7-1.6
	c-1.4,0.1-4.5,1.1-2.7,2.8c0.8,0.8,2.5,1.2,3.5,1.5c1.6,0.6,3.3,1.1,5,1.8c1.2,0.4,1.4,3.6-0.3,3c-1.3-0.5-2.9-0.9-4.5-1.4h-0.1
	c-1.6-0.4-4.8-0.5-5.2,1.7c-0.6,3.3,7,5.3,9.1,5.9c1.3,0.3,1.7,3.5,0.3,3.1c-2.5-0.6-4.9-1.5-7.2-2.8h-0.1c-0.8,0-1.6,0.4-2.1,1
	c-0.7,0.8-0.5,2,0.3,2.7c0,0,0,0,0,0c0.3,0.1,4.9,2.7,7.1,3c1.3,0.3,1.8,3.4,0.3,3.1c-2.4-0.4-4.8-1.2-6.9-2.4
	c-1.3,4.4,6.6,7,10,7.5c2.7,0.4,12.9,2.2,15.2-8.8C241.2,171.3,240.7,164.9,237,159.8z M228.2,216.4c-2.9-5.6-3.9-12.3-4-18.5
	c-0.1-1.7-2.3-2.4-2.2-0.3c0.2,6.8,1.4,14.1,4.5,20.2C227.5,219.6,229,217.9,228.2,216.4L228.2,216.4z M139.5,88.2
	c-1.9-0.1-3.6,2.5-3.8,5.7s1.2,6,3.1,6.1s3.6-2.5,3.8-5.7S141.4,88.3,139.5,88.2z M166.7,93.3c-0.2,3.3,1.3,6,3.2,6.1
	s3.6-2.5,3.8-5.8s-1.3-6-3.2-6.1S166.9,90,166.7,93.3z M159.6,88.8c-2,2.8-3.1,6.3-2,9.7c1,2.3,2.1,4.6,3.5,6.7
	c1.4,2.6,3.1,4.6-0.9,6c-1.4,0.5-0.4,3.6,0.9,3.1c3.2-1.2,4.8-3.9,3.6-7c-2.2-5.4-7.5-10.2-3.3-16.1
	C162.1,90.1,160.6,87.3,159.6,88.8z M151,80.2c-5.5-4.1-14.5-4.8-19.7,0.1c-1,0.9,0.3,3.8,1.4,2.8c4.5-4.2,12.6-3.9,17.5-0.3
	C151.8,84,152.1,81,151,80.2z M178.3,83.1c-0.5-2.1-3.2-3-5-3.4c-2.9-0.6-6,0.1-8.4,1.8c-1.1,0.8,0.1,3.7,1.4,2.8
	c1.4-1,3.2-1.7,4.9-1.8c1.5-0.1,0.9,0.1,5.1,1.1C178,85.4,178.8,85,178.3,83.1L178.3,83.1z M132.6,116.8c1.4-0.4,2.7-1.1,3.9-1.9
	c3.2,5.1,9,8,15,6.4c1.4-0.4,0.5-3.4-0.9-3.1c-4.7,1.2-9.7-0.7-12.4-4.8c0.7-0.7,1.2-1.5,1.6-2.4c0.5-1.3-1.3-3.6-2.1-1.8
	c0.1-0.3,0,0.1-0.2,0.3c-1.9,2.8-4.1,3.6-5.9,4.2C130.3,114.1,131.2,117.2,132.6,116.8L132.6,116.8z"/>
</svg>
