<svg xmlns="http://www.w3.org/2000/svg"><svg><symbol viewBox="0 0 16 16" id="icon-Working"><path d="M6 5c.824 0 1.53.292 2.118.877.588.585.882 1.298.882 2.14 0 .82-.294 1.521-.882 2.106A2.897 2.897 0 0 1 6 11c-.824 0-1.53-.292-2.118-.877A2.863 2.863 0 0 1 3 8.018c0-.843.294-1.556.882-2.14A2.897 2.897 0 0 1 6 5zm0 5.263c.635 0 1.165-.222 1.588-.667.447-.444.67-.97.67-1.578 0-.632-.223-1.158-.67-1.58-.423-.444-.953-.666-1.588-.666-.635 0-1.176.222-1.624.667-.423.42-.635.947-.635 1.579 0 .608.212 1.134.635 1.578.448.445.989.667 1.624.667z"/></symbol></svg><svg><symbol viewBox="0 0 16 16" id="icon-NotWorking"><path d="M9 8c0 .833-.292 1.542-.875 2.125A2.893 2.893 0 0 1 6 11a2.893 2.893 0 0 1-2.125-.875A2.893 2.893 0 0 1 3 8c0-.833.292-1.542.875-2.125A2.893 2.893 0 0 1 6 5c.833 0 1.542.292 2.125.875S9 7.167 9 8z"/></symbol></svg><svg><symbol viewBox="0 0 14 14" id="icon-MapMarker"><path fill-rule="evenodd" clip-rule="evenodd" d="M7 12.833s4.667-4.422 4.667-7a4.667 4.667 0 1 0-9.333 0c0 2.578 4.667 7 4.667 7zM10 6a3 3 0 1 1-6 0 3 3 0 0 1 6 0z"/><path d="m7 12.833-.343.363.344.326.344-.326L7 12.833zm4.167-7c0 .513-.24 1.18-.665 1.936-.418.742-.981 1.512-1.555 2.214a29.94 29.94 0 0 1-2.279 2.476l-.009.009-.002.002.344.363.344.363v-.001c.002 0 .003-.002.004-.003l.01-.01c.01-.01.024-.022.041-.04l.152-.148a30.93 30.93 0 0 0 2.169-2.378c.593-.725 1.196-1.545 1.653-2.356.45-.799.793-1.651.793-2.427h-1zM7.001 1.666a4.167 4.167 0 0 1 4.166 4.167h1A5.167 5.167 0 0 0 7.001.667v1zM2.834 5.833a4.167 4.167 0 0 1 4.167-4.167v-1a5.167 5.167 0 0 0-5.167 5.167h1zm4.167 7 .344-.363-.003-.002-.01-.009a13.595 13.595 0 0 1-.18-.177 29.94 29.94 0 0 1-2.097-2.299C4.48 9.281 3.917 8.511 3.498 7.77c-.426-.756-.665-1.423-.665-1.936h-1c0 .776.344 1.628.793 2.427.458.811 1.06 1.63 1.653 2.356a30.93 30.93 0 0 0 2.32 2.527l.042.039.01.01.003.003h.001l.345-.362zM7 9.5A3.5 3.5 0 0 0 10.5 6h-1A2.5 2.5 0 0 1 7 8.5v1zM3.5 6A3.5 3.5 0 0 0 7 9.5v-1A2.5 2.5 0 0 1 4.5 6h-1zM7 2.5A3.5 3.5 0 0 0 3.5 6h1A2.5 2.5 0 0 1 7 3.5v-1zM10.5 6A3.5 3.5 0 0 0 7 2.5v1A2.5 2.5 0 0 1 9.5 6h1z"/></symbol></svg><svg><symbol viewBox="0 0 16 16" id="icon-ExitNew"><path clip-rule="evenodd" d="M15.106 8.106 15.212 8l-.106-.106-3.534-3.534-.106-.106-.106.106-.619.618-.106.107.106.106 2.222 2.221H6.1V8.587h6.863L10.74 10.81l-.106.107.106.105.619.62.106.105.106-.106 3.534-3.534zm-6.081 6.019v-.15H3.406c-.795 0-1.381-.613-1.381-1.446V3.471c0-.833.586-1.446 1.381-1.446H9.025V.85H3.406C1.993.85.85 2.03.85 3.47v9.06c0 1.44 1.143 2.62 2.556 2.62H9.025v-1.025z"/></symbol></svg><svg><symbol viewBox="0 0 18 18" id="icon-Exit"><path fill-rule="evenodd" clip-rule="evenodd" d="M16.293 9.707 17 9l-.707-.707L12.96 4.96l-.707.707L15.086 8.5H7v1h8.086l-2.832 2.832.707.707 3.332-3.332zM3.75 16H10v1H3.75C2.234 17 1 15.733 1 14.177V3.824C1 2.267 2.234 1 3.75 1H10v1H3.75C2.739 2 2 2.785 2 3.824v10.353C2 15.215 2.739 16 3.75 16z" stroke="#656C87" stroke-width=".5"/></symbol></svg></svg>