<svg xmlns="http://www.w3.org/2000/svg" width="20" height="14" viewBox="0 0 20 14" fill="none">
    <g clip-path="url(#clip0_4261_152602)">
        <path fill-rule="evenodd" clip-rule="evenodd" d="M0 0H28.5V1.07734H0V0ZM0 2.15469H28.5V3.23203H0V2.15469ZM0 4.30664H28.5V5.38672H0V4.30664ZM0 6.46133H28.5V7.53867H0V6.46133ZM0 8.61602H28.5V9.69336H0V8.61602ZM0 10.768H28.5V11.8453H0V10.768ZM0 12.9227H28.5V14H0V12.9227Z" fill="#BD3D44"/>
        <path fill-rule="evenodd" clip-rule="evenodd" d="M0 1.07715H28.5V2.15449H0V1.07715ZM0 3.23184H28.5V4.30645H0V3.23184ZM0 5.38379H28.5V6.46113H0V5.38379ZM0 7.53848H28.5V8.61582H0V7.53848ZM0 9.69316H28.5V10.7705H0V9.69316ZM0 11.8451H28.5V12.9225H0V11.8451Z" fill="white"/>
        <path fill-rule="evenodd" clip-rule="evenodd" d="M0 0H11.3994V7.53867H0V0Z" fill="#192F5D"/>
        <path fill-rule="evenodd" clip-rule="evenodd" d="M0.949219 0.322754L1.05469 0.620801H1.38867L1.11914 0.804004L1.22168 1.10479L0.949219 0.918848L0.679688 1.10205L0.782227 0.804004L0.509766 0.620801H0.849609L0.949219 0.322754ZM2.85059 0.322754L2.95313 0.620801H3.29004L3.01758 0.804004L3.12012 1.10479L2.85059 0.918848L2.57813 1.10205L2.68066 0.804004L2.41113 0.620801H2.74512L2.85059 0.322754ZM4.74902 0.322754L4.85449 0.620801H5.18555L4.91602 0.804004L5.01856 1.10479L4.74609 0.918848L4.47656 1.10205L4.5791 0.804004L4.30664 0.620801H4.64356L4.74902 0.322754ZM6.65039 0.322754L6.75293 0.620801H7.08984L6.81738 0.804004L6.92285 1.10479L6.65039 0.918848L6.37793 1.10205L6.4834 0.804004L6.21094 0.620801H6.54492L6.65039 0.322754ZM8.54883 0.322754L8.6543 0.620801H8.98828L8.71875 0.804004L8.82129 1.10479L8.54883 0.918848L8.2793 1.10205L8.38184 0.804004L8.11231 0.620801H8.44629L8.54883 0.322754ZM10.4502 0.322754L10.5527 0.620801H10.8896L10.6172 0.804004L10.7227 1.10479L10.4502 0.918848L10.1777 1.10205L10.2832 0.804004L10.0107 0.620801H10.3477L10.4502 0.322754ZM1.90137 1.07744L2.00391 1.37549H2.34082L2.06836 1.55869L2.16797 1.85674L1.9043 1.67354L1.63184 1.85674L1.72852 1.55869L1.46484 1.37549H1.79883L1.90137 1.07744ZM3.7998 1.07744L3.90527 1.37549H4.23926L3.9668 1.55869L4.07227 1.85674L3.7998 1.67354L3.52734 1.85674L3.63281 1.55869L3.36035 1.37549H3.69727L3.7998 1.07744ZM5.70117 1.07744L5.80371 1.37549H6.14063L5.86816 1.55869L5.9707 1.85674L5.70117 1.67354L5.42871 1.85674L5.53125 1.55869L5.26172 1.37549H5.5957L5.70117 1.07744ZM7.59961 1.07744L7.70508 1.37549H8.03906L7.7666 1.55869L7.87207 1.85674L7.59961 1.67354L7.33008 1.85674L7.43262 1.55869L7.16016 1.37549H7.5L7.59961 1.07744ZM9.50098 1.07744L9.60352 1.37549H9.94043L9.66797 1.55869L9.77051 1.85674L9.50098 1.67354L9.22852 1.85674L9.33106 1.55869L9.06152 1.37549H9.39551L9.50098 1.07744ZM0.949219 1.82939L1.05469 2.13291H1.38867L1.11914 2.31611L1.22168 2.61416L0.949219 2.42822L0.679688 2.61416L0.782227 2.31338L0.509766 2.13018H0.849609L0.949219 1.82939ZM2.85059 1.82939L2.95313 2.13018H3.29004L3.01758 2.31338L3.12012 2.61143L2.85059 2.42549L2.57813 2.61143L2.68066 2.31064L2.41113 2.12744H2.74512L2.85059 1.82939ZM4.74902 1.82939L4.85449 2.13018H5.18555L4.91602 2.31338L5.01856 2.61143L4.74609 2.42549L4.47656 2.61143L4.5791 2.31064L4.30664 2.12744H4.64356L4.74902 1.82939ZM6.65039 1.82939L6.75293 2.13018H7.08984L6.81738 2.31338L6.92285 2.61143L6.65039 2.42549L6.37793 2.61143L6.4834 2.31064L6.21094 2.12744H6.54492L6.65039 1.82939ZM8.54883 1.82939L8.6543 2.13018H8.98828L8.71875 2.31338L8.82129 2.61143L8.54883 2.42549L8.2793 2.61143L8.38184 2.31064L8.11231 2.12744H8.44629L8.54883 1.82939ZM10.4502 1.82939L10.5527 2.13018H10.8896L10.6172 2.31338L10.7227 2.61143L10.4502 2.42549L10.1777 2.61143L10.2832 2.31064L10.0107 2.12744H10.3477L10.4502 1.82939ZM1.90137 2.58408L2.00391 2.88213H2.34082L2.06836 3.06533L2.1709 3.36611L1.90137 3.18018L1.62891 3.36338L1.73145 3.06533L1.46191 2.88213H1.7959L1.90137 2.58408ZM3.7998 2.58408L3.90527 2.88213H4.23926L3.9668 3.06533L4.07227 3.36611L3.7998 3.18018L3.52734 3.36338L3.63281 3.06533L3.36035 2.88213H3.69727L3.7998 2.58408ZM5.70117 2.58408L5.80371 2.88213H6.14063L5.86816 3.06533L5.9707 3.36611L5.70117 3.18018L5.42871 3.36338L5.53125 3.06533L5.26172 2.88213H5.5957L5.70117 2.58408ZM7.59961 2.58408L7.70508 2.88213H8.03906L7.76953 3.06533L7.87207 3.36611L7.59961 3.18018L7.33008 3.36338L7.43262 3.06533L7.16016 2.88213H7.5L7.59961 2.58408ZM9.50098 2.58408L9.60352 2.88213H9.94043L9.66797 3.06533L9.77051 3.36611L9.50098 3.18018L9.22852 3.36338L9.33106 3.06533L9.06152 2.88213H9.39551L9.50098 2.58408ZM0.949219 3.33877L1.05469 3.63682H1.38867L1.11914 3.82002L1.22168 4.1208L0.949219 3.93486L0.679688 4.11807L0.782227 3.82002L0.509766 3.63682H0.849609L0.949219 3.33877ZM2.85059 3.33877L2.95313 3.63682H3.29004L3.01758 3.82002L3.12012 4.11807L2.85059 3.93486L2.57813 4.11807L2.68066 3.82002L2.41113 3.63682H2.74512L2.85059 3.33877ZM4.74902 3.33877L4.85449 3.63682H5.18555L4.91602 3.82002L5.01856 4.1208L4.74609 3.93486L4.47656 4.11807L4.5791 3.82002L4.30664 3.63682H4.64356L4.74902 3.33877ZM6.65039 3.33877L6.75293 3.63682H7.08984L6.81738 3.82002L6.92285 4.1208L6.65039 3.93486L6.37793 4.11807L6.4834 3.82002L6.21094 3.63682H6.54492L6.65039 3.33877ZM8.54883 3.33877L8.6543 3.63682H8.98828L8.71875 3.82002L8.82129 4.1208L8.54883 3.93486L8.2793 4.11807L8.38184 3.82002L8.11231 3.63682H8.44629L8.54883 3.33877ZM10.4502 3.33877L10.5527 3.63682H10.8896L10.6172 3.82002L10.7227 4.1208L10.4502 3.93486L10.1777 4.11807L10.2832 3.82002L10.0107 3.63682H10.3477L10.4502 3.33877ZM1.90137 4.09346L2.00391 4.3915H2.34082L2.06836 4.57471L2.1709 4.87275L1.90137 4.68682L1.62891 4.87275L1.73145 4.57197L1.46191 4.38877H1.7959L1.90137 4.09346ZM3.7998 4.09346L3.90527 4.3915H4.23926L3.9668 4.57471L4.07227 4.87275L3.7998 4.68682L3.52734 4.87275L3.63281 4.57197L3.36035 4.38877H3.69727L3.7998 4.09346ZM5.70117 4.09346L5.80371 4.3915H6.14063L5.86816 4.57471L5.9707 4.87275L5.70117 4.68682L5.42871 4.87275L5.53125 4.57197L5.26172 4.38877H5.5957L5.70117 4.09346ZM7.59961 4.09346L7.70508 4.3915H8.03906L7.76953 4.57471L7.87207 4.87275L7.59961 4.68682L7.33008 4.87275L7.43262 4.57197L7.16016 4.38877H7.5L7.59961 4.09346ZM9.50098 4.09346L9.60352 4.3915H9.94043L9.66797 4.57471L9.77051 4.87275L9.50098 4.68682L9.22852 4.87275L9.33106 4.57197L9.06152 4.38877H9.39551L9.50098 4.09346ZM0.949219 4.84541L1.05469 5.14619H1.38867L1.11914 5.32939L1.22168 5.62471L0.949219 5.4415L0.679688 5.62471L0.782227 5.32666L0.509766 5.14346H0.849609L0.949219 4.84541ZM2.85059 4.84541L2.95313 5.14619H3.29004L3.01758 5.32939L3.12305 5.62471L2.85059 5.4415L2.57813 5.62471L2.68359 5.32666L2.41113 5.14346H2.74512L2.85059 4.84541ZM4.74902 4.84541L4.85449 5.14619H5.18555L4.91602 5.32939L5.01856 5.62471L4.74609 5.4415L4.47656 5.62471L4.5791 5.32666L4.30664 5.14346H4.64356L4.74902 4.84541ZM6.65039 4.84541L6.75293 5.14619H7.08984L6.81738 5.32939L6.92285 5.62471L6.65039 5.4415L6.37793 5.62471L6.4834 5.32666L6.21094 5.14346H6.54492L6.65039 4.84541ZM8.54883 4.84541L8.6543 5.14619H8.98828L8.71875 5.32939L8.82129 5.62471L8.54883 5.4415L8.2793 5.62471L8.38184 5.32666L8.11231 5.14346H8.44629L8.54883 4.84541ZM10.4502 4.84541L10.5527 5.14619H10.8896L10.6172 5.32939L10.7227 5.62471L10.4502 5.4415L10.1777 5.62471L10.2832 5.32666L10.0107 5.14346H10.3477L10.4502 4.84541ZM1.90137 5.6001L2.00391 5.89814H2.34082L2.06836 6.08135L2.1709 6.38213L1.90137 6.19619L1.62891 6.37939L1.73145 6.08135L1.46191 5.89814H1.7959L1.90137 5.6001ZM3.7998 5.6001L3.90527 5.89814H4.23926L3.9668 6.08135L4.07227 6.38213L3.7998 6.19619L3.52734 6.37939L3.63281 6.08135L3.36035 5.89814H3.69727L3.7998 5.6001ZM5.70117 5.6001L5.80371 5.89814H6.14063L5.86816 6.08135L5.9707 6.38213L5.70117 6.19619L5.42871 6.37939L5.53125 6.08135L5.26172 5.89814H5.5957L5.70117 5.6001ZM7.59961 5.6001L7.70508 5.89814H8.03906L7.76953 6.08135L7.87207 6.38213L7.59961 6.19619L7.33008 6.37939L7.43262 6.08135L7.16016 5.89814H7.5L7.59961 5.6001ZM9.50098 5.6001L9.60352 5.89814H9.94043L9.66797 6.08135L9.77051 6.38213L9.50098 6.19619L9.22852 6.37939L9.33106 6.08135L9.06152 5.89814H9.39551L9.50098 5.6001ZM0.949219 6.35478L1.05469 6.65283H1.38867L1.11914 6.83604L1.22168 7.13408L0.949219 6.95088L0.679688 7.13408L0.782227 6.8333L0.509766 6.6501H0.849609L0.949219 6.35478ZM2.85059 6.35478L2.95313 6.65283H3.29004L3.01758 6.83604L3.12305 7.13408L2.85059 6.95088L2.57813 7.13408L2.68359 6.8333L2.41113 6.6501H2.74512L2.85059 6.35478ZM4.74902 6.35478L4.85449 6.65283H5.18555L4.92188 6.83604L5.02441 7.13408L4.75195 6.95088L4.48242 7.13408L4.58496 6.8333L4.3125 6.6501H4.64941L4.74902 6.35478ZM6.65039 6.35478L6.75293 6.65283H7.08984L6.81738 6.83604L6.92285 7.13408L6.65039 6.95088L6.37793 7.13408L6.4834 6.8333L6.21094 6.6501H6.54492L6.65039 6.35478ZM8.54883 6.35478L8.6543 6.65283H8.98828L8.71875 6.83604L8.82129 7.13408L8.54883 6.95088L8.2793 7.13408L8.38184 6.8333L8.11231 6.6501H8.44629L8.54883 6.35478ZM10.4502 6.35478L10.5527 6.65283H10.8896L10.6172 6.83604L10.7227 7.13408L10.4502 6.95088L10.1777 7.13408L10.2832 6.8333L10.0107 6.6501H10.3477L10.4502 6.35478Z" fill="white"/>
    </g>
    <defs>
        <clipPath id="clip0_4261_152602">
            <rect width="20" height="14" fill="white"/>
        </clipPath>
    </defs>
</svg>